HIERARCHY
ROOT hip
{
	OFFSET 0.00000 0.00000 0.00000
	CHANNELS 6 Xposition Yposition Zposition Zrotation Yrotation Xrotation 
	JOINT rightuplegdummy
	{
		OFFSET 0 0 0
		CHANNELS 3 Zrotation Yrotation Xrotation
		JOINT rightupleg
		{
			OFFSET -3.52197 -3.41223 0.04002
			CHANNELS 3 Zrotation Yrotation Xrotation
			JOINT rightleg
			{
				OFFSET 0.00006 -17.42390 1.60435
				CHANNELS 3 Zrotation Yrotation Xrotation
				JOINT rightfoot
				{
					OFFSET 0.06153 -16.50078 -1.63901
					CHANNELS 3 Zrotation Yrotation Xrotation
					JOINT righttoes
					{
						OFFSET 0.00298 -1.73825 3.34613
						CHANNELS 3 Zrotation Yrotation Xrotation
						End Site
						{
							OFFSET 0.00480 -0.05416 3.85043
						}
					}
				}
			}
		}
	}
	JOINT spinedummy
	{
		OFFSET 0 0 0
		CHANNELS 3 Zrotation Yrotation Xrotation
		JOINT spine
		{
			OFFSET 0.00000 4.68130 0.00000
			CHANNELS 3 Zrotation Yrotation Xrotation
			JOINT spine1
			{
				OFFSET -0.00000 10.10138 0.05002
				CHANNELS 3 Zrotation Yrotation Xrotation
				JOINT headdummy
				{
					OFFSET 0 0 0
					CHANNELS 3 Zrotation Yrotation Xrotation
					JOINT head
					{
						OFFSET -0.00000 3.43865 0.00438
						CHANNELS 3 Zrotation Yrotation Xrotation
						End Site
						{
							OFFSET -0.11417 5.02924 0.98962
						}
					}
				}
				JOINT leftshoulder1dummy
				{
					OFFSET 0 0 0
					CHANNELS 3 Zrotation Yrotation Xrotation
					JOINT leftshoulder1
					{
						OFFSET 3.53937 -0.14262 -0.08662
						CHANNELS 3 Zrotation Yrotation Xrotation
						JOINT leftarm
						{
							OFFSET 4.04833 -0.00133 0.12681
							CHANNELS 3 Zrotation Yrotation Xrotation
							JOINT leftforearm
							{
								OFFSET 10.33880 -0.01036 -0.55515
								CHANNELS 3 Zrotation Yrotation Xrotation
								JOINT lefthand
								{
									OFFSET 8.69677 0.07543 0.40060
									CHANNELS 3 Zrotation Yrotation Xrotation
									End Site
									{
										OFFSET 5.28377 -0.21905 0.59205
									}
								}
							}
						}
					}
				}
				JOINT rightshoulderdummy
				{
					OFFSET 0 0 0
					CHANNELS 3 Zrotation Yrotation Xrotation
					JOINT rightshoulder
					{
						OFFSET -3.53937 -0.14262 -0.08660
						CHANNELS 3 Zrotation Yrotation Xrotation
						JOINT rightarm
						{
							OFFSET -4.04833 -0.00133 0.12683
							CHANNELS 3 Zrotation Yrotation Xrotation
							JOINT rightforearm
							{
								OFFSET -10.37987 -0.01039 -0.55511
								CHANNELS 3 Zrotation Yrotation Xrotation
								JOINT righthand
								{
									OFFSET -8.67398 0.07538 0.40058
									CHANNELS 3 Zrotation Yrotation Xrotation
									End Site
									{
										OFFSET -5.24810 -0.21916 0.59204
									}
								}
							}
						}
					}
				}
			}
		}
	}
	JOINT leftuplegdummy
	{
		OFFSET 0 0 0
		CHANNELS 3 Zrotation Yrotation Xrotation
		JOINT leftupleg
		{
			OFFSET 3.52197 -3.41223 0.04002
			CHANNELS 3 Zrotation Yrotation Xrotation
			JOINT leftleg
			{
				OFFSET -0.00012 -17.42399 1.60337
				CHANNELS 3 Zrotation Yrotation Xrotation
				JOINT leftfoot
				{
					OFFSET -0.09972 -16.50070 -1.63802
					CHANNELS 3 Zrotation Yrotation Xrotation
					JOINT lefttoes
					{
						OFFSET -0.01575 -1.73823 3.34611
						CHANNELS 3 Zrotation Yrotation Xrotation
						End Site
						{
							OFFSET 0.03150 -0.01868 3.85031
						}
					}
				}
			}
		}
	}
}
MOTION
Frames: 9
Frame Time: 0.033333
1.5557 36.7658 32.1208 171.0680 -80.2694 -179.7170 0.0000 -0.0000 0.0000 -18.3291 -7.4164 -10.7817 4.5320 5.0600 37.6952 12.9132 0.1346 -13.0968 0.0000 0.0000 -0.0000 0.0000 -0.0000 0.0000 -17.7506 -5.7149 8.1763 12.9999 -11.5961 11.3409 -0.0000 -0.0000 -0.0000 16.5347 -37.8360 -25.7488 -0.0000 -0.0000 -0.0000 -18.2070 -2.6133 1.5166 -54.3076 -44.6289 40.3555 -54.9065 -89.0571 47.6248 3.1027 6.5499 -0.0240 -0.0000 -0.0000 -0.0000 35.7816 6.1657 4.0433 44.4434 -12.0112 -5.7273 8.5323 13.1683 13.8681 13.0668 -2.8793 0.2561 0.0000 -0.0000 0.0000 19.0495 17.7703 0.3424 7.5587 8.9972 33.1009 -16.6367 0.0901 -11.1877 0.0000 -0.0000 -0.0000
1.5216 36.2078 31.5977 171.0800 -76.9158 179.6660 0.0000 -0.0000 0.0000 -18.4656 -10.3442 -13.5678 9.7325 8.8040 43.3245 9.8341 0.3009 -15.5096 0.0000 0.0000 -0.0000 0.0000 -0.0000 0.0000 -15.5727 -5.0800 7.6846 10.1536 -10.3399 13.7041 -0.0000 -0.0000 -0.0000 17.2997 -37.1078 -29.0250 -0.0000 -0.0000 -0.0000 -19.2850 -2.7409 1.6107 -51.5619 -42.2226 37.5202 -18.2471 -87.5243 10.9446 5.6358 7.8268 0.0582 -0.0000 -0.0000 -0.0000 35.1942 6.0599 3.9417 38.5799 -4.8290 -9.2333 9.7224 10.4600 16.4906 0.1345 -0.4019 0.0022 0.0000 -0.0000 0.0000 20.3673 18.8415 1.3033 8.7390 9.5012 35.9279 -17.4652 -0.1164 -12.5885 0.0000 -0.0000 -0.0000
1.2999 36.3700 31.4086 170.2500 -73.1789 -179.8390 0.0000 -0.0000 0.0000 -18.7846 -10.1919 -14.1872 11.9946 10.9090 43.2410 10.4189 0.2396 -14.5758 0.0000 0.0000 -0.0000 0.0000 -0.0000 0.0000 -14.5369 -5.0481 6.8084 8.9284 -9.9184 15.0676 -0.0000 -0.0000 -0.0000 15.6035 -35.9949 -29.3878 -0.0000 -0.0000 -0.0000 -21.3205 -3.0424 1.8129 -49.4724 -34.9789 34.0554 -11.2621 -86.1495 4.4625 11.8522 9.3988 0.3471 -0.0000 -0.0000 -0.0000 33.5318 5.8335 3.6916 33.7793 1.3441 -11.0824 7.7038 12.6769 13.7082 -16.9646 -1.7083 -0.5470 0.0000 -0.0000 0.0000 20.5042 20.0750 4.7342 9.1509 10.7974 33.8187 -19.7995 0.0577 -11.4430 0.0000 -0.0000 -0.0000
0.9750 37.3448 31.5483 168.4420 -72.0338 -177.2300 0.0000 -0.0000 0.0000 -19.2094 -8.8570 -11.5564 9.8228 11.5351 35.7800 11.4523 -0.0597 -11.0795 0.0000 0.0000 -0.0000 0.0000 -0.0000 0.0000 -14.3656 -6.2202 5.3324 9.0355 -10.7965 15.2112 -0.0000 -0.0000 -0.0000 13.9598 -35.5805 -27.6969 -0.0000 -0.0000 -0.0000 -22.7593 -3.2091 1.9498 -49.0013 -26.3220 32.0136 -7.9366 -84.6159 1.4244 14.7969 9.6954 0.4935 -0.0000 -0.0000 -0.0000 31.3143 5.4558 3.3436 32.3347 2.6628 -8.9232 1.5999 25.2829 1.2571 -28.0381 -1.8449 -0.8732 0.0000 -0.0000 0.0000 18.3382 18.9376 6.9795 9.5338 13.9823 28.1062 -19.2693 1.0752 -5.0857 0.0000 -0.0000 -0.0000
0.7411 38.6832 31.9210 164.9810 -72.4735 -172.0850 0.0000 -0.0000 0.0000 -20.1684 -8.7160 -8.5024 6.9273 11.7551 25.8822 13.2421 -0.9115 -3.5922 0.0000 0.0000 -0.0000 0.0000 -0.0000 0.0000 -15.1092 -6.9492 4.1458 10.0856 -11.3440 13.6884 -0.0000 -0.0000 -0.0000 14.0283 -36.3933 -26.3964 -0.0000 -0.0000 -0.0000 -22.4401 -3.2953 1.9545 -50.2642 -20.7567 32.5132 -5.3428 -81.9635 -1.0450 11.6950 8.9204 0.2977 -0.0000 -0.0000 -0.0000 29.7324 5.0194 3.0476 30.1230 -0.2991 -17.2370 0.9406 41.7136 -4.8789 -25.6815 -0.5485 -1.0804 0.0000 -0.0000 0.0000 15.1097 17.8407 7.3937 7.3415 14.6689 21.2265 -14.9854 1.7046 1.7491 0.0000 -0.0000 -0.0000
0.6915 39.8126 32.4473 163.4860 -72.2430 -169.4440 0.0000 -0.0000 0.0000 -20.8645 -10.4111 -6.5517 4.8400 11.9856 17.3351 16.9000 -2.5076 5.5630 0.0000 0.0000 -0.0000 0.0000 -0.0000 0.0000 -15.6429 -6.2330 4.6695 11.9945 -10.6985 11.0479 -0.0000 -0.0000 -0.0000 14.4709 -37.3466 -26.5785 -0.0000 -0.0000 -0.0000 -21.4140 -3.5366 1.9557 -51.1079 -18.1299 33.5544 -4.2295 -80.2417 -1.6403 7.5482 7.6768 0.0925 -0.0000 -0.0000 -0.0000 28.3554 4.6460 2.8044 26.4739 -3.6339 -22.7613 2.0293 56.3139 -12.7541 -20.3941 -0.8856 -0.7993 0.0000 -0.0000 0.0000 13.6927 18.8299 8.1263 2.5344 11.1047 16.3950 -13.8846 1.9403 4.7399 0.0000 -0.0000 -0.0000
0.7874 40.2939 33.0048 164.1760 -71.7560 -169.8230 0.0000 -0.0000 0.0000 -20.9315 -11.5360 -5.7987 3.4143 11.1044 13.1965 18.1380 -3.5100 10.6741 0.0000 0.0000 -0.0000 0.0000 -0.0000 0.0000 -15.1351 -5.4526 5.7237 12.5289 -9.9436 9.7732 -0.0000 -0.0000 -0.0000 14.7949 -37.4084 -27.4753 -0.0000 -0.0000 -0.0000 -20.1888 -3.6935 1.9168 -49.6279 -17.1242 32.8058 -4.1638 -81.0768 -0.0603 5.6074 6.5594 0.0057 -0.0000 -0.0000 -0.0000 26.3495 4.3365 2.5458 23.4167 -4.6987 -26.5090 3.4133 68.6322 -14.2387 -20.7060 -0.9243 -0.8065 0.0000 -0.0000 0.0000 14.0024 23.6669 8.6725 0.1642 6.0363 16.4171 -16.7128 2.5785 6.3525 0.0000 -0.0000 -0.0000
0.9507 40.0352 33.5330 163.8760 -72.0974 -169.4880 0.0000 -0.0000 0.0000 -21.4800 -9.8056 -6.2538 2.9999 8.4274 15.6837 17.2371 -3.0011 8.4512 0.0000 0.0000 -0.0000 0.0000 -0.0000 0.0000 -14.4585 -5.4481 6.4692 11.2571 -9.7926 9.6330 -0.0000 -0.0000 -0.0000 15.1049 -37.0277 -27.4907 -0.0000 -0.0000 -0.0000 -17.9968 -3.6683 1.7640 -47.2927 -17.0197 30.3043 -4.5618 -82.8510 1.9615 4.7236 5.9953 -0.0226 -0.0000 -0.0000 -0.0000 23.8130 3.8964 2.2240 21.4469 -3.4840 -29.8235 5.6448 78.5694 -9.3083 -23.8983 -1.1152 -0.8920 0.0000 -0.0000 0.0000 14.2376 29.3962 7.9402 1.1872 3.0495 20.2166 -18.5189 2.8268 6.1037 0.0000 -0.0000 -0.0000
1.1389 39.1661 34.0061 163.3190 -72.8036 -169.0060 0.0000 -0.0000 0.0000 -22.0531 -9.4967 -7.5787 2.8879 6.0272 21.5369 17.4783 -1.9885 1.6271 0.0000 0.0000 -0.0000 0.0000 -0.0000 0.0000 -15.0576 -5.2835 7.4770 11.3542 -9.9602 9.1407 -0.0000 -0.0000 -0.0000 14.3125 -36.6363 -26.5755 -0.0000 -0.0000 -0.0000 -16.1395 -3.5536 1.6153 -44.7705 -17.5265 26.8984 -5.8603 -84.0359 2.3348 4.7499 6.2002 -0.0162 -0.0000 -0.0000 -0.0000 22.0306 3.3974 1.9573 17.2963 -1.1084 -33.6741 15.2288 85.9010 1.2653 -25.8908 -2.2419 -0.7193 0.0000 -0.0000 0.0000 14.5734 31.9749 6.5836 1.0556 1.0664 25.4386 -19.6253 1.9320 -0.1933 0.0000 -0.0000 -0.0000
